<svg xmlns="http://www.w3.org/2000/svg" xmlns:xlink="http://www.w3.org/1999/xlink" width="1130" zoomAndPan="magnify" viewBox="0 0 847.5 187.499995" height="250" preserveAspectRatio="xMidYMid meet" version="1.0"><defs><g/></defs><g fill="#0f2d4a" fill-opacity="1"><g transform="translate(263.442626, 148.531413)"><g><path d="M 86.1875 -27.375 L 28 -27.375 L 15.953125 0 L -0.15625 0 L 49.421875 -109.5 L 64.921875 -109.5 L 114.65625 0 L 98.234375 0 Z M 80.71875 -39.890625 L 57.09375 -93.546875 L 33.46875 -39.890625 Z M 80.71875 -39.890625 "/></g></g></g><g fill="#0f2d4a" fill-opacity="1"><g transform="translate(377.932945, 148.531413)"><g><path d="M 60.84375 -4.84375 C 58.65625 -2.96875 55.941406 -1.535156 52.703125 -0.546875 C 49.472656 0.441406 46.140625 0.9375 42.703125 0.9375 C 34.359375 0.9375 27.890625 -1.300781 23.296875 -5.78125 C 18.710938 -10.269531 16.421875 -16.6875 16.421875 -25.03125 L 16.421875 -70.546875 L 2.34375 -70.546875 L 2.34375 -82.90625 L 16.421875 -82.90625 L 16.421875 -101.046875 L 31.4375 -101.046875 L 31.4375 -82.90625 L 55.21875 -82.90625 L 55.21875 -70.546875 L 31.4375 -70.546875 L 31.4375 -25.65625 C 31.4375 -21.164062 32.554688 -17.722656 34.796875 -15.328125 C 37.046875 -12.929688 40.253906 -11.734375 44.421875 -11.734375 C 49.015625 -11.734375 52.925781 -13.035156 56.15625 -15.640625 Z M 60.84375 -4.84375 "/></g></g></g><g fill="#0f2d4a" fill-opacity="1"><g transform="translate(442.685665, 148.531413)"><g><path d="M 58.5 -83.6875 C 69.03125 -83.6875 77.398438 -80.632812 83.609375 -74.53125 C 89.816406 -68.4375 92.921875 -59.492188 92.921875 -47.703125 L 92.921875 0 L 77.890625 0 L 77.890625 -45.984375 C 77.890625 -54.015625 75.960938 -60.0625 72.109375 -64.125 C 68.253906 -68.195312 62.726562 -70.234375 55.53125 -70.234375 C 47.394531 -70.234375 40.976562 -67.859375 36.28125 -63.109375 C 31.59375 -58.367188 29.25 -51.566406 29.25 -42.703125 L 29.25 0 L 14.234375 0 L 14.234375 -116.0625 L 29.25 -116.0625 L 29.25 -71.171875 C 32.375 -75.128906 36.460938 -78.203125 41.515625 -80.390625 C 46.578125 -82.585938 52.238281 -83.6875 58.5 -83.6875 Z M 58.5 -83.6875 "/></g></g></g><g fill="#0f2d4a" fill-opacity="1"><g transform="translate(549.199197, 148.531413)"><g><path d="M 89.15625 -40.984375 C 89.15625 -39.835938 89.050781 -38.328125 88.84375 -36.453125 L 21.59375 -36.453125 C 22.53125 -29.148438 25.734375 -23.28125 31.203125 -18.84375 C 36.679688 -14.414062 43.488281 -12.203125 51.625 -12.203125 C 61.53125 -12.203125 69.503906 -15.539062 75.546875 -22.21875 L 83.84375 -12.515625 C 80.09375 -8.128906 75.425781 -4.789062 69.84375 -2.5 C 64.257812 -0.207031 58.03125 0.9375 51.15625 0.9375 C 42.394531 0.9375 34.625 -0.859375 27.84375 -4.453125 C 21.0625 -8.054688 15.816406 -13.085938 12.109375 -19.546875 C 8.410156 -26.015625 6.5625 -33.316406 6.5625 -41.453125 C 6.5625 -49.484375 8.359375 -56.726562 11.953125 -63.1875 C 15.554688 -69.65625 20.515625 -74.6875 26.828125 -78.28125 C 33.140625 -81.882812 40.253906 -83.6875 48.171875 -83.6875 C 56.097656 -83.6875 63.164062 -81.882812 69.375 -78.28125 C 75.582031 -74.6875 80.429688 -69.65625 83.921875 -63.1875 C 87.410156 -56.726562 89.15625 -49.328125 89.15625 -40.984375 Z M 48.171875 -71.015625 C 40.984375 -71.015625 34.960938 -68.820312 30.109375 -64.4375 C 25.265625 -60.0625 22.425781 -54.328125 21.59375 -47.234375 L 74.765625 -47.234375 C 73.929688 -54.222656 71.085938 -59.929688 66.234375 -64.359375 C 61.390625 -68.796875 55.367188 -71.015625 48.171875 -71.015625 Z M 48.171875 -71.015625 "/></g></g></g><g fill="#0f2d4a" fill-opacity="1"><g transform="translate(644.920621, 148.531413)"><g><path d="M 58.5 -83.6875 C 69.03125 -83.6875 77.398438 -80.632812 83.609375 -74.53125 C 89.816406 -68.4375 92.921875 -59.492188 92.921875 -47.703125 L 92.921875 0 L 77.890625 0 L 77.890625 -45.984375 C 77.890625 -54.015625 75.960938 -60.0625 72.109375 -64.125 C 68.253906 -68.195312 62.726562 -70.234375 55.53125 -70.234375 C 47.394531 -70.234375 40.976562 -67.859375 36.28125 -63.109375 C 31.59375 -58.367188 29.25 -51.566406 29.25 -42.703125 L 29.25 0 L 14.234375 0 L 14.234375 -82.90625 L 28.625 -82.90625 L 28.625 -70.390625 C 31.644531 -74.660156 35.734375 -77.941406 40.890625 -80.234375 C 46.054688 -82.535156 51.925781 -83.6875 58.5 -83.6875 Z M 58.5 -83.6875 "/></g></g></g><g fill="#0f2d4a" fill-opacity="1"><g transform="translate(751.434165, 148.531413)"><g><path d="M 44.421875 -83.6875 C 55.890625 -83.6875 64.675781 -80.867188 70.78125 -75.234375 C 76.882812 -69.609375 79.9375 -61.21875 79.9375 -50.0625 L 79.9375 0 L 65.703125 0 L 65.703125 -10.953125 C 63.191406 -7.085938 59.613281 -4.140625 54.96875 -2.109375 C 50.332031 -0.078125 44.835938 0.9375 38.484375 0.9375 C 29.203125 0.9375 21.769531 -1.300781 16.1875 -5.78125 C 10.613281 -10.269531 7.828125 -16.164062 7.828125 -23.46875 C 7.828125 -30.757812 10.484375 -36.617188 15.796875 -41.046875 C 21.117188 -45.484375 29.566406 -47.703125 41.140625 -47.703125 L 64.921875 -47.703125 L 64.921875 -50.6875 C 64.921875 -57.144531 63.039062 -62.09375 59.28125 -65.53125 C 55.53125 -68.976562 50.003906 -70.703125 42.703125 -70.703125 C 37.796875 -70.703125 32.992188 -69.894531 28.296875 -68.28125 C 23.609375 -66.664062 19.648438 -64.5 16.421875 -61.78125 L 10.171875 -73.046875 C 14.441406 -76.492188 19.546875 -79.128906 25.484375 -80.953125 C 31.429688 -82.773438 37.742188 -83.6875 44.421875 -83.6875 Z M 40.984375 -10.640625 C 46.710938 -10.640625 51.660156 -11.914062 55.828125 -14.46875 C 60.003906 -17.019531 63.035156 -20.644531 64.921875 -25.34375 L 64.921875 -36.921875 L 41.765625 -36.921875 C 29.046875 -36.921875 22.6875 -32.644531 22.6875 -24.09375 C 22.6875 -19.914062 24.300781 -16.628906 27.53125 -14.234375 C 30.757812 -11.835938 35.242188 -10.640625 40.984375 -10.640625 Z M 40.984375 -10.640625 "/></g></g></g><path fill="#0f2d4a" d="M 171.480469 79.199219 C 171.515625 81.269531 174.589844 81.269531 174.625 79.199219 C 174.585938 77.132812 171.515625 77.132812 171.480469 79.199219 Z M 171.480469 79.199219 " fill-opacity="1" fill-rule="nonzero"/><path fill="#0f2d4a" d="M 104.332031 116.429688 C 104.347656 118.316406 107.082031 118.574219 107.445312 116.722656 L 105.902344 116.429688 L 107.472656 116.429688 C 107.429688 114.363281 104.371094 114.363281 104.332031 116.429688 Z M 104.332031 116.429688 " fill-opacity="1" fill-rule="nonzero"/><path fill="#0f2d4a" d="M 25.414062 100.171875 C 28.253906 100.394531 39.578125 98.203125 50.140625 103.363281 L 53.296875 120.71875 C 48.65625 121.441406 47.859375 126.488281 51.0625 129.402344 C 50.503906 131.167969 50.40625 133.648438 52.359375 135.316406 C 52.246094 135.976562 52.289062 136.628906 52.496094 137.265625 C 52.699219 137.90625 53.039062 138.460938 53.519531 138.929688 C 50.582031 146.597656 47.019531 154.644531 38.96875 155.488281 C 33.164062 156.039062 22.523438 155.816406 16.464844 148.128906 C 15.53125 146.898438 13.496094 147.9375 13.953125 149.425781 C 15.242188 153.308594 17.109375 156.890625 19.554688 160.167969 C 24.109375 167.808594 45.246094 181.960938 54.046875 167.707031 C 56.210938 164.0625 58.125 160.289062 59.785156 156.390625 L 65.007812 185.097656 C 65.042969 185.285156 65.109375 185.460938 65.214844 185.621094 C 65.316406 185.78125 65.449219 185.914062 65.605469 186.023438 C 65.761719 186.132812 65.933594 186.207031 66.121094 186.25 C 66.304688 186.289062 66.492188 186.292969 66.679688 186.257812 C 66.871094 186.222656 67.042969 186.152344 67.203125 186.050781 C 67.363281 185.945312 67.5 185.816406 67.609375 185.660156 C 67.714844 185.5 67.789062 185.328125 67.832031 185.144531 C 67.871094 184.957031 67.875 184.769531 67.839844 184.578125 L 59.695312 139.8125 L 62.804688 139.332031 L 71.4375 185.105469 C 71.820312 186.960938 74.585938 186.441406 74.265625 184.570312 L 65.515625 138.160156 C 66.304688 137.457031 66.792969 136.585938 66.988281 135.546875 L 76.96875 136.140625 C 71.410156 141.316406 67.347656 150.511719 83.269531 161.449219 C 95.640625 172.625 122.707031 180.585938 142.335938 178.90625 C 142.523438 178.898438 142.703125 178.855469 142.871094 178.773438 C 143.042969 178.695312 143.191406 178.589844 143.320312 178.453125 C 143.449219 178.3125 143.546875 178.15625 143.613281 177.980469 C 143.679688 177.808594 143.710938 177.625 143.707031 177.4375 C 143.699219 177.023438 143.503906 171.203125 139.679688 162.113281 C 140.367188 159.816406 141.398438 157.683594 142.773438 155.722656 C 144.148438 153.757812 145.796875 152.0625 147.71875 150.632812 C 148.769531 151.570312 149.742188 152.582031 150.636719 153.667969 C 151.601562 155.589844 152.605469 157.390625 153.632812 159.078125 C 152.328125 161.683594 149.523438 168.390625 153.492188 171.574219 L 157.082031 174.769531 C 157.453125 175.21875 157.894531 175.578125 158.410156 175.84375 C 158.929688 176.113281 159.476562 176.265625 160.054688 176.308594 C 162.210938 176.601562 163.816406 174.644531 165.1875 173.300781 C 166.679688 174.667969 168.105469 175.835938 169.417969 176.824219 C 176.21875 181.917969 181.507812 183.40625 181.730469 183.464844 C 182.078125 183.5625 182.410156 183.53125 182.734375 183.375 C 183.058594 183.21875 183.289062 182.976562 183.433594 182.644531 C 192.472656 159.4375 181.101562 128.257812 162.5625 111.976562 C 162.929688 110.242188 163.121094 108.492188 163.136719 106.71875 C 163.152344 104.945312 162.988281 103.191406 162.644531 101.449219 C 162.304688 99.710938 161.789062 98.023438 161.105469 96.390625 C 160.421875 94.753906 159.582031 93.207031 158.582031 91.742188 C 154.777344 86.132812 146.886719 78.855469 130.875 76.0625 C 108.035156 72.078125 105.742188 60.019531 106.179688 53.773438 C 112.007812 54.863281 118.667969 57.152344 123.640625 61.851562 C 124.121094 64.101562 127.054688 72.28125 142.03125 74.921875 C 154.097656 76.652344 183.503906 87.882812 172.964844 115.960938 C 172.371094 117.738281 175.03125 118.699219 175.6875 116.902344 C 184.023438 94.488281 168.875 79.441406 150.675781 74.085938 C 165.074219 69.941406 166.410156 77.625 168.714844 74.953125 C 168.824219 74.796875 168.898438 74.625 168.941406 74.441406 C 168.984375 74.253906 168.988281 74.066406 168.957031 73.878906 C 168.921875 73.691406 168.855469 73.515625 168.753906 73.351562 C 168.652344 73.191406 168.523438 73.054688 168.367188 72.945312 C 164.066406 69.910156 158.507812 69.164062 152.28125 70.78125 C 141.699219 73.464844 134.058594 69.386719 133.703125 69.257812 C 127.128906 65.84375 126.441406 61.238281 126.40625 60.960938 C 126.191406 59.628906 125.800781 58.347656 125.242188 57.125 C 125.234375 55.195312 125.03125 53.292969 124.625 51.40625 C 132.136719 56.816406 135.019531 56.703125 138.667969 56.90625 C 146.359375 56.792969 149.144531 52.878906 148.210938 51.496094 C 147.300781 49.832031 142.527344 52.03125 139.246094 46.65625 C 138.078125 44.703125 137.433594 42.050781 137.296875 38.679688 C 136.960938 15.753906 113.777344 1.941406 93.910156 10.511719 C 88.019531 13.046875 82.71875 16.5 78.015625 20.867188 C 77.09375 21.714844 77.777344 23.417969 79.042969 23.339844 C 79.171875 23.339844 92.15625 23.261719 97.9375 32.472656 C 98.1875 32.972656 100.046875 36.96875 97.464844 40.621094 C 95.371094 40.128906 93.109375 40.933594 92.320312 43.15625 C 91.464844 45.253906 90.332031 51.414062 94.152344 52.566406 C 82.671875 63.355469 94.316406 81.128906 87.351562 88.007812 C 83.171875 92.652344 78.84375 90.445312 76.652344 87.664062 C 75.496094 86.167969 73.238281 87.851562 74.34375 89.390625 C 74.457031 89.542969 77.023438 92.929688 80.980469 93.527344 C 74.777344 98.144531 68.648438 109.273438 76.617188 119.28125 C 77.492188 120.445312 78.117188 121.730469 78.5 123.132812 L 70.796875 123.132812 L 70.519531 121.195312 C 70.339844 120.371094 69.964844 119.648438 69.394531 119.027344 C 71.550781 107.765625 67.890625 96.710938 56.835938 92.136719 C 56.757812 91.851562 48.515625 47.761719 48.402344 47.539062 C 48.929688 46.851562 49.355469 46.101562 49.667969 45.292969 C 49.984375 44.488281 50.179688 43.648438 50.253906 42.785156 C 50.328125 41.921875 50.28125 41.0625 50.109375 40.210938 C 49.9375 39.359375 49.648438 38.550781 49.246094 37.785156 C 49.078125 37.464844 48.859375 37.179688 48.597656 36.933594 C 48.335938 36.683594 48.042969 36.484375 47.714844 36.332031 C 47.386719 36.179688 47.042969 36.085938 46.683594 36.046875 C 46.328125 36.007812 45.972656 36.027344 45.617188 36.105469 C 42.375 21.753906 36.71875 1.761719 36.660156 1.554688 C 36.324219 0.21875 34.300781 0.160156 33.90625 1.5 C 31.417969 9.117188 29.949219 23.320312 29.886719 23.917969 C 29.855469 24.238281 29.921875 24.535156 30.089844 24.8125 C 30.253906 25.085938 30.484375 25.28125 30.78125 25.402344 C 36.300781 27.632812 38.574219 36.777344 39.457031 42.269531 C 35.089844 47.164062 27.910156 54.460938 16.113281 63.445312 C 5.390625 71.609375 0.871094 80.726562 3.710938 88.457031 C 6.335938 95.601562 14.921875 100.171875 25.414062 100.171875 Z M 31.125 89.820312 C 30.90625 89.847656 22.914062 91.390625 18.546875 87.480469 C 16.617188 78.390625 36.394531 58.027344 41.171875 54.082031 L 47.644531 89.644531 C 42.6875 88.929688 37.144531 88.984375 31.125 89.820312 Z M 85.714844 159.738281 C 88.199219 145.503906 92.523438 141.3125 94.316406 140.152344 C 95.644531 140.976562 97.019531 141.703125 98.449219 142.328125 C 96.28125 146.613281 93.992188 154.402344 96.175781 166.460938 C 92.464844 164.566406 88.976562 162.328125 85.710938 159.738281 Z M 93.351562 133.828125 C 92.070312 134.4375 87.863281 133.804688 86.460938 133.816406 C 87.429688 130.277344 86.980469 127.574219 86.363281 125.84375 C 87.605469 125.628906 89.0625 124.6875 90.15625 124.078125 C 87.921875 128.117188 89.964844 132.085938 93.347656 133.828125 Z M 92.089844 103.980469 C 94.980469 104.335938 99.527344 106.441406 100.960938 109.964844 C 99.21875 111.570312 97.566406 113.265625 96.007812 115.050781 C 95.15625 114.949219 94.363281 114.675781 93.632812 114.226562 C 92.898438 113.777344 92.292969 113.195312 91.8125 112.484375 C 89.816406 109.722656 89.902344 106.9375 92.085938 103.980469 Z M 99.433594 168.058594 C 96.667969 155.34375 99.109375 147.417969 101.160156 143.421875 C 103.230469 144.175781 105.339844 144.792969 107.488281 145.277344 C 106.824219 151.210938 106.859375 161.140625 111.578125 172.566406 C 107.410156 171.382812 103.363281 169.878906 99.429688 168.058594 Z M 115.125 173.507812 C 109.882812 162.035156 109.746094 151.824219 110.359375 145.847656 C 112.929688 146.292969 115.515625 146.589844 118.117188 146.738281 C 121.152344 152.714844 125.386719 162.515625 128.636719 175.738281 C 124.078125 175.328125 119.574219 174.582031 115.125 173.507812 Z M 122.507812 126.460938 C 123.476562 128.640625 123.105469 130.417969 121.40625 131.75 C 118.46875 132.125 115.570312 132.378906 112.710938 132.507812 C 110.308594 119.5625 121.035156 113.699219 126.246094 102.945312 C 127.4375 104.0625 128.804688 104.902344 130.34375 105.460938 C 126.800781 111.128906 120.566406 122.105469 122.507812 126.460938 Z M 161.320312 173.046875 C 160.644531 173.730469 159.585938 173.441406 159.089844 172.699219 C 154.304688 168.414062 153.039062 168.535156 155.488281 161.96875 C 157.742188 165.316406 160.28125 168.425781 163.113281 171.300781 Z M 168.042969 122.054688 C 175.835938 131.871094 182.027344 145.003906 183.308594 157.535156 C 168.894531 148.925781 167.246094 132.894531 168.046875 122.054688 Z M 178.140625 161.265625 C 178.105469 163.335938 175.035156 163.335938 175 161.265625 C 175.035156 159.199219 178.105469 159.199219 178.144531 161.265625 Z M 164.496094 144.296875 C 164.460938 146.367188 161.390625 146.367188 161.355469 144.296875 C 161.390625 142.230469 164.464844 142.230469 164.5 144.296875 Z M 161.847656 122.75 C 161.8125 124.820312 158.738281 124.820312 158.707031 122.75 C 158.742188 120.683594 161.8125 120.683594 161.847656 122.75 Z M 151.566406 107.535156 C 153.042969 108.34375 154.464844 109.246094 155.832031 110.234375 C 151.957031 121.519531 144.710938 154.519531 182.773438 174.242188 C 182.40625 176.28125 181.898438 178.285156 181.25 180.253906 C 158.066406 171.464844 138.167969 135.535156 151.566406 107.535156 Z M 147.589844 146.789062 C 141.164062 141.402344 139.984375 140.945312 144.535156 133.488281 C 144.953125 138.058594 145.972656 142.492188 147.59375 146.789062 Z M 144.316406 129.128906 C 142.910156 130.660156 141.730469 132.351562 140.773438 134.199219 C 139.480469 131.578125 139.15625 129.605469 138.742188 127.058594 C 138.167969 120.5625 134.972656 115.71875 130.238281 111.222656 C 131.277344 109.347656 132.3125 107.648438 133.257812 106.183594 C 134.28125 106.328125 135.304688 106.382812 136.335938 106.347656 C 141.90625 116.890625 140.421875 119.113281 144.320312 128.003906 C 144.316406 128.378906 144.316406 128.753906 144.316406 129.128906 Z M 125.664062 85.628906 C 125.949219 85.363281 126.265625 85.140625 126.617188 84.96875 C 126.96875 84.796875 127.339844 84.683594 127.726562 84.621094 C 128.113281 84.5625 128.5 84.558594 128.886719 84.617188 C 129.273438 84.671875 129.644531 84.785156 129.996094 84.953125 C 137.828125 88.085938 139.863281 94.125 140.21875 97.359375 C 140.378906 99.566406 137.433594 99.804688 135.25 99.804688 C 128.613281 99.761719 122.359375 88.691406 125.664062 85.628906 Z M 109.816406 111.996094 C 109.949219 112.132812 110.105469 112.242188 110.277344 112.316406 C 110.453125 112.394531 110.636719 112.433594 110.828125 112.4375 C 111.019531 112.441406 111.203125 112.40625 111.378906 112.339844 C 111.558594 112.269531 111.714844 112.167969 111.851562 112.035156 C 117.609375 106.484375 121.1875 102.128906 123.339844 99.117188 C 123.613281 99.597656 123.925781 100.089844 124.273438 100.59375 C 119.617188 110.785156 107.425781 118.113281 109.796875 132.597656 C 107.453125 132.632812 105.144531 132.585938 102.871094 132.453125 C 100.457031 129.371094 100.476562 126.402344 102.910156 122.355469 C 103.007812 122.191406 103.070312 122.015625 103.097656 121.828125 C 103.121094 121.640625 103.113281 121.453125 103.066406 121.269531 C 103.019531 121.082031 102.941406 120.914062 102.828125 120.761719 C 102.714844 120.609375 102.574219 120.484375 102.414062 120.386719 C 102.25 120.289062 102.074219 120.222656 101.886719 120.195312 C 101.699219 120.167969 101.511719 120.175781 101.328125 120.21875 C 101.144531 120.265625 100.976562 120.34375 100.820312 120.457031 C 100.667969 120.570312 100.542969 120.707031 100.441406 120.867188 C 97.914062 125.078125 97.523438 128.738281 99.28125 132.171875 C 98.042969 132.046875 96.816406 131.898438 95.601562 131.726562 C 93.515625 130.925781 90.84375 128.625 92.742188 125.335938 C 95.78125 119.4375 97.933594 115.890625 110.0625 105.847656 C 114.175781 102.441406 118.054688 98.789062 121.707031 94.890625 C 121.78125 95.242188 121.875 95.605469 121.988281 95.984375 C 120.152344 98.769531 116.523438 103.53125 109.859375 109.953125 C 109.71875 110.085938 109.613281 110.242188 109.535156 110.417969 C 109.457031 110.59375 109.417969 110.777344 109.414062 110.96875 C 109.410156 111.160156 109.445312 111.34375 109.515625 111.523438 C 109.582031 111.699219 109.683594 111.859375 109.816406 111.996094 Z M 121.558594 90.777344 C 117.90625 94.875 113.996094 98.707031 109.828125 102.277344 C 109.722656 101.375 109.496094 100.503906 109.140625 99.667969 C 108.332031 97.964844 105.78125 99.121094 106.519531 100.855469 C 106.53125 100.882812 107.652344 103.472656 106.453125 105.113281 C 105.257812 106.121094 104.164062 107.070312 103.164062 107.957031 C 101.46875 104.625 97.445312 102.28125 94.367188 101.527344 C 95.207031 100.78125 96.101562 100.113281 97.058594 99.523438 L 100.4375 97.210938 C 101.984375 96.140625 100.371094 93.773438 98.8125 94.832031 L 97.546875 95.695312 C 97.421875 90.070312 100.117188 86.898438 104.914062 88.660156 C 105.417969 89.738281 107.820312 92.703125 111.398438 93.589844 C 111.675781 93.589844 117.851562 93.476562 121.925781 89.324219 C 121.75 89.792969 121.628906 90.277344 121.558594 90.777344 Z M 118.96875 88.097656 C 116.214844 90.246094 112.640625 90.628906 111.636719 90.691406 C 110.257812 90.144531 109.074219 89.320312 108.082031 88.210938 C 108.683594 87.859375 109.175781 87.386719 109.5625 86.804688 C 109.945312 86.21875 110.183594 85.582031 110.269531 84.886719 C 112.390625 85.570312 114.511719 85.570312 116.632812 84.882812 C 116.792969 85.550781 117.074219 86.167969 117.480469 86.722656 C 117.886719 87.28125 118.382812 87.738281 118.96875 88.097656 Z M 116.121094 82.019531 C 115.257812 82.34375 114.363281 82.503906 113.441406 82.5 C 112.519531 82.496094 111.625 82.328125 110.765625 81.996094 C 110.878906 81.089844 110.957031 80.140625 111.007812 79.148438 C 112.339844 78.707031 114.304688 77.835938 115.75 76.257812 C 115.757812 78.1875 115.878906 80.109375 116.121094 82.019531 Z M 112.210938 72.007812 C 109.769531 75.398438 105.734375 76.570312 104.542969 76.851562 C 103.96875 76.660156 103.414062 76.425781 102.878906 76.148438 C 102.34375 75.871094 101.832031 75.554688 101.34375 75.195312 C 100.859375 74.839844 100.402344 74.445312 99.980469 74.015625 C 99.554688 73.582031 99.167969 73.121094 98.816406 72.628906 C 98.464844 72.140625 98.15625 71.621094 97.886719 71.082031 C 97.617188 70.542969 97.390625 69.980469 97.210938 69.40625 C 97.027344 68.828125 96.894531 68.242188 96.804688 67.644531 C 96.714844 67.046875 96.675781 66.445312 96.679688 65.839844 L 98.003906 66.175781 C 99.835938 66.617188 100.546875 63.882812 98.710938 63.382812 L 96.695312 62.867188 C 96.820312 59.457031 97.410156 56.128906 98.476562 52.886719 C 99.902344 52.953125 101.546875 53.085938 103.328125 53.320312 C 103.054688 56.601562 103.539062 59.769531 104.773438 62.820312 L 103.46875 63.214844 C 101.898438 63.671875 102.273438 66.058594 103.886719 66.039062 C 104.175781 66.074219 105.789062 65.5 106.09375 65.433594 C 107.675781 68.050781 109.714844 70.242188 112.210938 72.007812 Z M 134.417969 38.800781 C 134.550781 42.167969 135.167969 44.800781 136.101562 46.855469 C 129.597656 48.03125 126.09375 44.917969 124.53125 42.835938 C 128.125 42.433594 131.875 41.085938 134.367188 37.925781 C 134.382812 38.214844 134.402344 38.503906 134.417969 38.796875 Z M 133.671875 32.800781 C 132.171875 38.761719 126.5 39.957031 122.722656 40.066406 C 121.84375 38.921875 120.871094 37.859375 119.800781 36.886719 C 124.082031 32.816406 126.429688 27.867188 126.351562 19.144531 C 128.214844 21.011719 129.769531 23.105469 131.015625 25.433594 C 132.261719 27.757812 133.148438 30.214844 133.671875 32.800781 Z M 123.226562 16.460938 C 124.597656 26.820312 120.476562 32.488281 117.589844 35.109375 C 116.554688 34.375 115.46875 33.726562 114.332031 33.160156 C 116 23.640625 113.699219 15.410156 112.234375 11.460938 C 116.261719 12.328125 119.925781 13.996094 123.226562 16.460938 Z M 108.929688 10.964844 C 109.960938 13.382812 113.148438 21.925781 111.597656 31.996094 C 110.050781 31.441406 108.46875 31.023438 106.847656 30.746094 C 104.078125 20.785156 98.824219 15.289062 95.832031 12.84375 C 100.050781 11.195312 104.417969 10.570312 108.929688 10.964844 Z M 82.582031 20.714844 C 85.746094 18.15625 89.15625 15.976562 92.804688 14.175781 C 94.695312 15.5 100.59375 20.300781 103.734375 30.375 C 102.492188 30.277344 101.25 30.285156 100.011719 30.390625 C 95.292969 23.410156 87.234375 21.328125 82.582031 20.714844 Z M 95.011719 44.160156 C 95.085938 43.921875 95.222656 43.730469 95.421875 43.585938 C 95.621094 43.4375 95.847656 43.367188 96.09375 43.371094 C 108.363281 44.84375 116.84375 48.445312 121.835938 56.75 C 112.605469 50.640625 101.015625 49.933594 95.574219 49.933594 C 93.253906 49.871094 94.789062 44.75 95.011719 44.160156 Z M 94.539062 56.535156 C 93.96875 59.058594 93.71875 62.863281 93.800781 65.921875 C 93.796875 67.457031 94.03125 68.957031 94.503906 70.414062 C 94.980469 71.875 95.667969 73.222656 96.574219 74.460938 C 97.300781 75.566406 100.914062 81.429688 98.917969 86.152344 C 96.585938 87.511719 95.363281 89.605469 94.902344 92.574219 L 94.902344 92.570312 C 94.902344 92.570312 93.050781 101.496094 83.078125 105.128906 C 83.613281 103.191406 84.714844 101.066406 86.699219 98.757812 C 99.867188 81.21875 85.957031 70.140625 94.539062 56.535156 Z M 75.902344 106.5625 C 76.933594 100.964844 81.371094 96.28125 84.761719 94.273438 C 85.765625 93.589844 86.691406 92.820312 87.550781 91.960938 C 86.757812 93.753906 85.738281 95.402344 84.488281 96.910156 C 81.761719 100.179688 80.414062 103.203125 79.96875 106.007812 C 78.625 106.292969 77.269531 106.476562 75.902344 106.5625 Z M 71.167969 126.019531 L 83.324219 126.019531 C 83.914062 127.164062 84.761719 129.726562 83.511719 133.640625 L 67.035156 132.660156 C 67.003906 131.832031 66.949219 130.941406 66.859375 130.007812 C 69.097656 129.996094 71.144531 128.335938 71.167969 126.019531 Z M 67.6875 121.710938 L 68.214844 125.402344 C 68.429688 126.257812 68.167969 126.855469 67.28125 127.050781 L 66.496094 127.144531 C 66.0625 125.039062 65.824219 122.65625 64.664062 120.785156 C 66.007812 120.417969 67.117188 120.164062 67.6875 121.707031 Z M 62.929688 124.175781 L 56.964844 125.570312 C 56.773438 125.609375 56.597656 125.683594 56.4375 125.792969 C 56.277344 125.902344 56.148438 126.039062 56.042969 126.203125 C 55.9375 126.367188 55.867188 126.546875 55.835938 126.738281 C 55.800781 126.929688 55.808594 127.121094 55.851562 127.308594 C 55.894531 127.5 55.976562 127.671875 56.089844 127.828125 C 56.203125 127.988281 56.34375 128.117188 56.507812 128.214844 C 56.675781 128.316406 56.855469 128.382812 57.046875 128.410156 C 57.238281 128.4375 57.429688 128.425781 57.617188 128.378906 L 63.554688 126.992188 C 63.730469 127.980469 63.859375 128.945312 63.953125 129.871094 L 58.214844 131.285156 C 58.03125 131.328125 57.863281 131.410156 57.707031 131.523438 C 57.554688 131.636719 57.429688 131.773438 57.332031 131.9375 C 57.230469 132.101562 57.167969 132.277344 57.140625 132.464844 C 57.113281 132.65625 57.121094 132.84375 57.164062 133.027344 C 57.210938 133.210938 57.289062 133.382812 57.402344 133.535156 C 57.515625 133.691406 57.652344 133.816406 57.816406 133.914062 C 57.980469 134.015625 58.15625 134.078125 58.34375 134.109375 C 58.53125 134.136719 58.71875 134.128906 58.902344 134.085938 L 64.160156 132.789062 C 64.214844 134.21875 64.484375 136.136719 62.691406 136.429688 L 56.855469 137.328125 C 55.449219 137.40625 54.878906 136.183594 55.316406 135.339844 C 55.394531 135.175781 55.441406 135 55.457031 134.8125 C 55.46875 134.628906 55.445312 134.449219 55.390625 134.273438 C 55.332031 134.097656 55.246094 133.9375 55.128906 133.792969 C 55.011719 133.652344 54.871094 133.535156 54.707031 133.449219 C 52.734375 132.371094 53.953125 129.84375 54.09375 129.5625 C 54.179688 129.398438 54.234375 129.222656 54.253906 129.035156 C 54.269531 128.847656 54.253906 128.667969 54.199219 128.488281 C 54.148438 128.308594 54.0625 128.144531 53.945312 127.996094 C 53.828125 127.851562 53.691406 127.730469 53.527344 127.640625 C 52.199219 127.003906 51.183594 124.550781 52.960938 123.800781 L 60.300781 121.785156 C 61.957031 121.351562 62.6875 122.800781 62.929688 124.175781 Z M 59 119.152344 L 56.082031 119.953125 L 45.410156 61.277344 L 47.613281 58.765625 Z M 32.863281 23.199219 C 33.160156 20.597656 34.027344 13.460938 35.320312 7.472656 C 37.300781 14.679688 40.886719 28.023438 43.101562 38.035156 C 42.703125 38.507812 42.332031 38.949219 41.882812 39.480469 C 40.589844 33.058594 38.015625 25.976562 32.863281 23.199219 Z M 17.855469 65.742188 C 34.828125 52.695312 41.082031 44.832031 46.011719 39.054688 C 46.054688 38.996094 46.109375 38.957031 46.175781 38.929688 C 46.238281 38.902344 46.308594 38.890625 46.378906 38.902344 C 46.449219 38.910156 46.511719 38.933594 46.570312 38.976562 C 46.628906 39.015625 46.671875 39.070312 46.703125 39.132812 C 48.761719 43.34375 46.144531 46.484375 42.546875 49.175781 C 35.636719 54.941406 3.328125 83.644531 20.757812 96.953125 C 1.566406 93.753906 1.269531 77.730469 17.855469 65.742188 Z M 17.855469 65.742188 " fill-opacity="1" fill-rule="nonzero"/></svg>