<svg xmlns="http://www.w3.org/2000/svg" xmlns:xlink="http://www.w3.org/1999/xlink" width="500" zoomAndPan="magnify" viewBox="0 0 375 374.999991" height="500" preserveAspectRatio="xMidYMid meet" version="1.0"><path fill="#0f2d4a" d="M 333.902344 159.605469 C 333.96875 163.652344 339.984375 163.652344 340.050781 159.605469 C 339.980469 155.5625 333.96875 155.5625 333.902344 159.605469 Z M 333.902344 159.605469 " fill-opacity="1" fill-rule="nonzero"/><path fill="#0f2d4a" d="M 202.476562 232.433594 C 202.511719 236.125 207.859375 236.625 208.574219 233.003906 L 205.550781 232.433594 L 208.625 232.433594 C 208.542969 228.390625 202.558594 228.390625 202.476562 232.433594 Z M 202.476562 232.433594 " fill-opacity="1" fill-rule="nonzero"/><path fill="#0f2d4a" d="M 48.019531 200.628906 C 53.582031 201.0625 75.742188 196.777344 96.414062 206.871094 L 102.59375 240.816406 C 93.511719 242.230469 91.949219 252.109375 98.21875 257.808594 C 97.132812 261.261719 96.9375 266.109375 100.761719 269.378906 C 100.535156 270.667969 100.625 271.941406 101.023438 273.1875 C 101.425781 274.4375 102.09375 275.523438 103.027344 276.441406 C 97.28125 291.445312 90.304688 307.183594 74.550781 308.835938 C 63.1875 309.910156 42.363281 309.476562 30.511719 294.433594 C 28.679688 292.027344 24.691406 294.058594 25.59375 296.972656 C 28.113281 304.570312 31.765625 311.574219 36.550781 317.988281 C 45.472656 332.929688 86.839844 360.613281 104.058594 332.734375 C 108.292969 325.605469 112.039062 318.222656 115.292969 310.59375 L 125.511719 366.75 C 125.578125 367.117188 125.714844 367.457031 125.917969 367.773438 C 126.121094 368.085938 126.375 368.351562 126.683594 368.5625 C 126.988281 368.777344 127.324219 368.921875 127.691406 369 C 128.054688 369.082031 128.421875 369.085938 128.789062 369.019531 C 129.15625 368.953125 129.5 368.816406 129.8125 368.613281 C 130.125 368.410156 130.390625 368.15625 130.601562 367.847656 C 130.816406 367.539062 130.960938 367.203125 131.039062 366.839844 C 131.117188 366.472656 131.125 366.105469 131.058594 365.738281 L 115.117188 278.167969 L 121.203125 277.230469 L 138.097656 366.769531 C 138.851562 370.398438 144.257812 369.375 143.636719 365.722656 L 126.507812 274.933594 C 128.050781 273.5625 129.011719 271.859375 129.390625 269.828125 L 148.925781 270.988281 C 138.042969 281.109375 130.097656 299.097656 161.257812 320.488281 C 185.464844 342.355469 238.4375 357.925781 276.859375 354.640625 C 277.226562 354.625 277.574219 354.539062 277.910156 354.382812 C 278.242188 354.230469 278.535156 354.019531 278.785156 353.75 C 279.035156 353.480469 279.226562 353.175781 279.359375 352.832031 C 279.488281 352.488281 279.550781 352.132812 279.542969 351.765625 C 279.527344 350.960938 279.148438 339.566406 271.660156 321.792969 C 273.003906 317.296875 275.023438 313.128906 277.714844 309.289062 C 280.40625 305.445312 283.632812 302.128906 287.398438 299.332031 C 289.453125 301.164062 291.355469 303.144531 293.105469 305.273438 C 294.996094 309.035156 296.960938 312.554688 298.96875 315.851562 C 296.414062 320.953125 290.929688 334.066406 298.695312 340.296875 L 305.722656 346.550781 C 306.445312 347.429688 307.3125 348.128906 308.324219 348.652344 C 309.332031 349.175781 310.40625 349.476562 311.539062 349.558594 C 315.753906 350.132812 318.902344 346.304688 321.582031 343.671875 C 324.5 346.351562 327.292969 348.636719 329.867188 350.5625 C 343.171875 360.53125 353.527344 363.441406 353.960938 363.558594 C 354.289062 363.648438 354.621094 363.679688 354.960938 363.648438 C 355.300781 363.617188 355.621094 363.527344 355.925781 363.378906 C 356.234375 363.230469 356.503906 363.035156 356.738281 362.789062 C 356.972656 362.542969 357.160156 362.265625 357.292969 361.953125 C 374.988281 316.554688 352.726562 255.566406 316.441406 223.722656 C 317.167969 220.332031 317.542969 216.902344 317.570312 213.433594 C 317.597656 209.96875 317.277344 206.53125 316.609375 203.132812 C 315.9375 199.730469 314.933594 196.429688 313.59375 193.230469 C 312.257812 190.035156 310.609375 187.003906 308.65625 184.140625 C 301.210938 173.164062 285.761719 158.933594 254.425781 153.46875 C 209.726562 145.675781 205.234375 122.085938 206.09375 109.867188 C 217.503906 112 230.535156 116.480469 240.269531 125.671875 C 241.207031 130.074219 246.953125 146.070312 276.261719 151.238281 C 299.878906 154.621094 357.433594 176.589844 336.804688 231.515625 C 335.644531 234.992188 340.851562 236.867188 342.132812 233.351562 C 358.449219 189.511719 328.800781 160.078125 293.179688 149.601562 C 321.359375 141.496094 323.976562 156.523438 328.484375 151.300781 C 328.699219 150.996094 328.847656 150.660156 328.929688 150.296875 C 329.011719 149.929688 329.023438 149.5625 328.957031 149.195312 C 328.894531 148.828125 328.761719 148.484375 328.5625 148.167969 C 328.363281 147.851562 328.113281 147.585938 327.808594 147.371094 C 319.390625 141.4375 308.507812 139.972656 296.324219 143.140625 C 275.617188 148.390625 260.65625 140.414062 259.964844 140.15625 C 247.097656 133.484375 245.75 124.46875 245.679688 123.925781 C 245.261719 121.320312 244.5 118.820312 243.398438 116.421875 C 243.390625 112.652344 242.988281 108.925781 242.199219 105.242188 C 256.898438 115.824219 262.539062 115.601562 269.679688 116 C 284.738281 115.777344 290.183594 108.121094 288.355469 105.417969 C 286.578125 102.164062 277.234375 106.460938 270.8125 95.949219 C 268.527344 92.128906 267.261719 86.941406 266.996094 80.347656 C 266.339844 35.5 220.964844 8.484375 182.078125 25.242188 C 170.546875 30.207031 160.179688 36.960938 150.972656 45.503906 C 149.167969 47.164062 150.507812 50.488281 152.984375 50.339844 C 153.234375 50.339844 178.648438 50.1875 189.960938 68.207031 C 190.449219 69.183594 194.09375 76.996094 189.039062 84.144531 C 184.9375 83.175781 180.515625 84.757812 178.964844 89.105469 C 177.296875 93.203125 175.078125 105.253906 182.558594 107.507812 C 160.085938 128.613281 182.878906 163.382812 169.25 176.832031 C 161.066406 185.921875 152.597656 181.605469 148.300781 176.164062 C 146.042969 173.238281 141.625 176.53125 143.785156 179.539062 C 144.007812 179.839844 149.027344 186.464844 156.773438 187.628906 C 144.636719 196.660156 132.636719 218.429688 148.238281 238.007812 C 149.945312 240.285156 151.175781 242.796875 151.917969 245.546875 L 136.847656 245.546875 L 136.304688 241.75 C 135.945312 240.140625 135.210938 238.726562 134.101562 237.511719 C 138.316406 215.488281 131.160156 193.859375 109.519531 184.910156 C 109.371094 184.351562 93.234375 98.113281 93.011719 97.671875 C 93.527344 97.003906 93.992188 96.300781 94.410156 95.566406 C 94.824219 94.832031 95.1875 94.070312 95.492188 93.285156 C 95.800781 92.5 96.050781 91.695312 96.242188 90.871094 C 96.433594 90.050781 96.566406 89.21875 96.636719 88.375 C 96.710938 87.535156 96.722656 86.691406 96.675781 85.847656 C 96.628906 85.003906 96.523438 84.171875 96.355469 83.34375 C 96.1875 82.515625 95.960938 81.703125 95.679688 80.90625 C 95.398438 80.113281 95.058594 79.339844 94.664062 78.59375 C 94.335938 77.96875 93.910156 77.414062 93.398438 76.929688 C 92.886719 76.441406 92.308594 76.050781 91.667969 75.753906 C 91.027344 75.457031 90.355469 75.273438 89.652344 75.195312 C 88.953125 75.121094 88.257812 75.160156 87.566406 75.308594 C 81.214844 47.242188 70.148438 8.132812 70.035156 7.722656 C 69.378906 5.109375 65.417969 5 64.644531 7.617188 C 59.769531 22.519531 56.898438 50.296875 56.78125 51.472656 C 56.75 51.777344 56.765625 52.078125 56.832031 52.375 C 56.902344 52.675781 57.011719 52.953125 57.171875 53.214844 C 57.328125 53.476562 57.523438 53.707031 57.757812 53.90625 C 57.988281 54.105469 58.246094 54.261719 58.53125 54.375 C 69.328125 58.738281 73.777344 76.621094 75.507812 87.367188 C 66.957031 96.941406 52.90625 111.21875 29.816406 128.789062 C 8.832031 144.757812 -0.0117188 162.589844 5.542969 177.710938 C 10.679688 191.691406 27.484375 200.628906 48.019531 200.628906 Z M 59.199219 180.378906 C 58.773438 180.433594 43.132812 183.453125 34.582031 175.804688 C 30.804688 158.023438 69.511719 118.191406 78.867188 110.476562 L 91.527344 180.035156 C 81.832031 178.636719 70.980469 178.746094 59.199219 180.378906 Z M 166.039062 317.140625 C 170.90625 289.300781 179.371094 281.101562 182.878906 278.832031 C 185.472656 280.445312 188.167969 281.863281 190.964844 283.089844 C 186.71875 291.472656 182.242188 306.703125 186.519531 330.292969 C 179.253906 326.59375 172.425781 322.210938 166.035156 317.140625 Z M 180.988281 266.464844 C 178.476562 267.65625 170.242188 266.417969 167.503906 266.4375 C 169.402344 259.515625 168.519531 254.234375 167.3125 250.839844 C 169.742188 250.421875 172.59375 248.582031 174.734375 247.394531 C 170.359375 255.289062 174.363281 263.054688 180.984375 266.464844 Z M 178.515625 208.082031 C 184.171875 208.773438 193.078125 212.894531 195.878906 219.785156 C 192.46875 222.925781 189.238281 226.242188 186.1875 229.734375 C 184.519531 229.535156 182.96875 228.996094 181.535156 228.117188 C 180.101562 227.242188 178.914062 226.105469 177.976562 224.710938 C 174.066406 219.3125 174.238281 213.863281 178.511719 208.082031 Z M 192.890625 333.421875 C 187.480469 308.554688 192.257812 293.042969 196.269531 285.234375 C 200.324219 286.703125 204.453125 287.910156 208.65625 288.855469 C 207.355469 300.464844 207.429688 319.886719 216.660156 342.238281 C 208.503906 339.925781 200.582031 336.984375 192.886719 333.421875 Z M 223.601562 344.078125 C 213.339844 321.640625 213.074219 301.667969 214.273438 289.976562 C 219.304688 290.847656 224.367188 291.429688 229.460938 291.714844 C 235.402344 303.40625 243.691406 322.578125 250.042969 348.441406 C 241.121094 347.636719 232.308594 346.183594 223.601562 344.078125 Z M 238.054688 252.050781 C 239.949219 256.316406 239.21875 259.796875 235.894531 262.398438 C 230.144531 263.132812 224.472656 263.625 218.875 263.878906 C 214.175781 238.558594 235.171875 227.09375 245.367188 206.050781 C 247.703125 208.242188 250.378906 209.882812 253.390625 210.972656 C 246.453125 222.066406 234.25 243.535156 238.054688 252.050781 Z M 314.015625 343.183594 C 312.691406 344.519531 310.617188 343.945312 309.648438 342.496094 C 300.285156 334.117188 297.8125 334.351562 302.601562 321.511719 C 307.011719 328.054688 311.984375 334.140625 317.519531 339.761719 Z M 327.175781 243.429688 C 342.421875 262.636719 354.539062 288.324219 357.046875 312.835938 C 328.839844 296 325.613281 264.640625 327.179688 243.429688 Z M 346.933594 320.136719 C 346.867188 324.183594 340.855469 324.183594 340.785156 320.136719 C 340.859375 316.09375 346.871094 316.089844 346.9375 320.136719 Z M 320.230469 286.945312 C 320.164062 290.988281 314.148438 290.988281 314.082031 286.945312 C 314.152344 282.898438 320.167969 282.898438 320.234375 286.945312 Z M 315.046875 244.796875 C 314.976562 248.839844 308.964844 248.84375 308.898438 244.796875 C 308.964844 240.75 314.980469 240.75 315.046875 244.796875 Z M 294.921875 215.027344 C 297.816406 216.617188 300.601562 218.378906 303.273438 220.3125 C 295.6875 242.382812 281.503906 306.941406 356.003906 345.519531 C 355.285156 349.507812 354.292969 353.429688 353.019531 357.277344 C 307.644531 340.085938 268.703125 269.804688 294.921875 215.027344 Z M 287.144531 291.8125 C 274.570312 281.277344 272.257812 280.386719 281.164062 265.796875 C 281.984375 274.738281 283.976562 283.410156 287.144531 291.8125 Z M 280.738281 257.273438 C 277.980469 260.269531 275.671875 263.574219 273.804688 267.191406 C 271.265625 262.058594 270.636719 258.203125 269.828125 253.226562 C 268.699219 240.515625 262.445312 231.039062 253.183594 222.246094 C 255.214844 218.578125 257.242188 215.25 259.09375 212.386719 C 261.09375 212.667969 263.097656 212.773438 265.113281 212.707031 C 276.015625 233.332031 273.113281 237.675781 280.742188 255.074219 C 280.734375 255.800781 280.730469 256.535156 280.738281 257.273438 Z M 244.226562 172.183594 C 244.785156 171.660156 245.410156 171.230469 246.097656 170.894531 C 246.785156 170.558594 247.507812 170.332031 248.265625 170.210938 C 249.019531 170.09375 249.777344 170.089844 250.535156 170.199219 C 251.292969 170.308594 252.019531 170.527344 252.710938 170.855469 C 268.03125 176.988281 272.019531 188.800781 272.71875 195.128906 C 273.027344 199.441406 267.265625 199.910156 262.988281 199.914062 C 250 199.824219 237.757812 178.175781 244.226562 172.183594 Z M 213.214844 223.757812 C 213.476562 224.027344 213.777344 224.238281 214.117188 224.386719 C 214.460938 224.535156 214.816406 224.613281 215.191406 224.621094 C 215.566406 224.628906 215.925781 224.5625 216.273438 224.425781 C 216.621094 224.289062 216.929688 224.09375 217.199219 223.832031 C 228.46875 212.976562 235.46875 204.453125 239.679688 198.5625 C 240.214844 199.507812 240.824219 200.472656 241.507812 201.457031 C 232.390625 221.386719 208.53125 235.722656 213.171875 264.054688 C 208.589844 264.125 204.070312 264.03125 199.621094 263.773438 C 194.890625 257.746094 194.933594 251.9375 199.695312 244.019531 C 199.882812 243.699219 200.007812 243.355469 200.058594 242.988281 C 200.113281 242.621094 200.09375 242.253906 200.003906 241.894531 C 199.910156 241.535156 199.753906 241.203125 199.535156 240.90625 C 199.3125 240.605469 199.042969 240.359375 198.722656 240.167969 C 198.40625 239.976562 198.0625 239.851562 197.695312 239.796875 C 197.328125 239.742188 196.960938 239.757812 196.601562 239.84375 C 196.238281 239.933594 195.910156 240.085938 195.609375 240.308594 C 195.308594 240.527344 195.0625 240.796875 194.867188 241.113281 C 189.914062 249.351562 189.15625 256.507812 192.589844 263.222656 C 190.167969 262.980469 187.769531 262.691406 185.394531 262.351562 C 181.308594 260.78125 176.078125 256.28125 179.796875 249.851562 C 185.746094 238.3125 189.957031 231.375 213.691406 211.730469 C 221.742188 205.066406 229.339844 197.921875 236.484375 190.296875 C 236.632812 190.984375 236.816406 191.699219 237.035156 192.4375 C 233.441406 197.886719 226.34375 207.199219 213.292969 219.765625 C 213.023438 220.023438 212.8125 220.324219 212.664062 220.667969 C 212.511719 221.011719 212.433594 221.371094 212.425781 221.746094 C 212.417969 222.121094 212.484375 222.480469 212.621094 222.832031 C 212.757812 223.179688 212.957031 223.488281 213.214844 223.757812 Z M 236.195312 182.25 C 229.046875 190.265625 221.394531 197.765625 213.234375 204.746094 C 213.03125 202.980469 212.585938 201.28125 211.894531 199.644531 C 210.308594 196.3125 205.316406 198.574219 206.757812 201.96875 C 206.78125 202.019531 208.976562 207.082031 206.632812 210.292969 C 204.292969 212.265625 202.148438 214.121094 200.191406 215.859375 C 196.878906 209.34375 189.003906 204.757812 182.976562 203.28125 C 184.617188 201.820312 186.371094 200.511719 188.242188 199.359375 L 194.855469 194.839844 C 197.886719 192.746094 194.726562 188.113281 191.675781 190.179688 L 189.203125 191.871094 C 188.953125 180.871094 194.226562 174.664062 203.613281 178.113281 C 204.605469 180.21875 209.304688 186.023438 216.308594 187.757812 C 216.855469 187.75 228.9375 187.53125 236.914062 179.410156 C 236.570312 180.332031 236.332031 181.277344 236.195312 182.25 Z M 231.128906 177.011719 C 225.730469 181.214844 218.738281 181.960938 216.777344 182.089844 C 214.074219 181.019531 211.757812 179.402344 209.816406 177.234375 C 210.996094 176.542969 211.960938 175.625 212.714844 174.480469 C 213.464844 173.339844 213.929688 172.089844 214.101562 170.730469 C 216.125 171.382812 218.199219 171.707031 220.328125 171.707031 C 222.453125 171.703125 224.527344 171.375 226.550781 170.722656 C 226.867188 172.03125 227.421875 173.234375 228.214844 174.320312 C 229.007812 175.410156 229.976562 176.308594 231.128906 177.011719 Z M 225.550781 165.125 C 223.859375 165.757812 222.113281 166.070312 220.304688 166.0625 C 218.5 166.054688 216.753906 165.726562 215.070312 165.074219 C 215.289062 163.308594 215.449219 161.445312 215.542969 159.507812 C 218.152344 158.640625 222 156.933594 224.828125 153.855469 C 224.839844 157.625 225.082031 161.382812 225.550781 165.125 Z M 217.898438 145.539062 C 213.121094 152.171875 205.226562 154.464844 202.890625 155.011719 C 201.769531 154.640625 200.683594 154.183594 199.632812 153.640625 C 198.585938 153.097656 197.582031 152.476562 196.632812 151.777344 C 195.679688 151.074219 194.789062 150.304688 193.960938 149.460938 C 193.132812 148.621094 192.371094 147.71875 191.6875 146.757812 C 191 145.792969 190.390625 144.785156 189.863281 143.726562 C 189.335938 142.667969 188.894531 141.574219 188.539062 140.449219 C 188.183594 139.320312 187.921875 138.171875 187.746094 137 C 187.574219 135.832031 187.492188 134.65625 187.503906 133.472656 L 190.09375 134.132812 C 193.675781 134.988281 195.066406 129.644531 191.480469 128.664062 L 187.53125 127.660156 C 187.773438 120.988281 188.933594 114.476562 191.015625 108.132812 C 193.8125 108.265625 197.027344 108.523438 200.511719 108.980469 C 200.25 112.148438 200.359375 115.300781 200.835938 118.441406 C 201.316406 121.582031 202.148438 124.625 203.34375 127.566406 L 200.792969 128.339844 C 197.714844 129.234375 198.449219 133.902344 201.605469 133.859375 C 202.171875 133.933594 205.328125 132.8125 205.921875 132.679688 C 209.023438 137.796875 213.015625 142.082031 217.898438 145.535156 Z M 261.359375 80.578125 C 261.625 87.167969 262.828125 92.320312 264.65625 96.335938 C 251.929688 98.636719 245.070312 92.546875 242.011719 88.476562 C 249.046875 87.6875 256.382812 85.050781 261.265625 78.871094 C 261.296875 79.4375 261.335938 80 261.359375 80.574219 Z M 259.902344 68.84375 C 256.96875 80.507812 245.863281 82.84375 238.46875 83.058594 C 236.75 80.816406 234.84375 78.742188 232.753906 76.84375 C 241.132812 68.875 245.730469 59.199219 245.574219 42.132812 C 249.222656 45.785156 252.265625 49.882812 254.707031 54.429688 C 257.144531 58.980469 258.878906 63.785156 259.902344 68.84375 Z M 239.457031 36.886719 C 242.140625 57.148438 234.078125 68.234375 228.425781 73.359375 C 226.402344 71.921875 224.273438 70.652344 222.050781 69.550781 C 225.316406 50.925781 220.808594 34.824219 217.941406 27.101562 C 221.835938 27.941406 225.597656 29.183594 229.226562 30.832031 C 232.855469 32.484375 236.261719 34.5 239.457031 36.886719 Z M 211.476562 26.132812 C 213.5 30.859375 219.734375 47.574219 216.699219 67.273438 C 213.671875 66.1875 210.574219 65.371094 207.402344 64.824219 C 201.980469 45.34375 191.695312 34.589844 185.839844 29.804688 C 189.914062 28.214844 194.117188 27.113281 198.445312 26.492188 C 202.777344 25.871094 207.117188 25.75 211.476562 26.132812 Z M 159.90625 45.199219 C 166.105469 40.199219 172.773438 35.9375 179.914062 32.414062 C 183.617188 35.003906 195.164062 44.398438 201.308594 64.097656 C 198.878906 63.910156 196.449219 63.921875 194.019531 64.128906 C 184.789062 50.476562 169.015625 46.40625 159.90625 45.199219 Z M 184.242188 91.066406 C 184.382812 90.601562 184.648438 90.226562 185.039062 89.941406 C 185.429688 89.652344 185.871094 89.511719 186.355469 89.519531 C 210.371094 92.398438 226.96875 99.449219 236.738281 115.695312 C 218.671875 103.746094 195.984375 102.363281 185.335938 102.363281 C 180.796875 102.238281 183.800781 92.222656 184.242188 91.066406 Z M 183.3125 115.273438 C 182.199219 120.210938 181.703125 127.648438 181.871094 133.636719 C 181.859375 136.640625 182.320312 139.566406 183.246094 142.421875 C 184.175781 145.277344 185.523438 147.917969 187.296875 150.339844 C 188.71875 152.496094 195.792969 163.96875 191.878906 173.203125 C 187.320312 175.863281 184.921875 179.957031 184.023438 185.769531 L 184.023438 185.757812 C 184.023438 185.757812 180.398438 203.222656 160.882812 210.328125 C 161.925781 206.535156 164.085938 202.378906 167.964844 197.867188 C 193.738281 163.554688 166.515625 141.882812 183.3125 115.273438 Z M 146.835938 213.128906 C 148.851562 202.175781 157.539062 193.019531 164.179688 189.09375 C 166.136719 187.753906 167.957031 186.246094 169.632812 184.566406 C 168.085938 188.074219 166.085938 191.300781 163.640625 194.25 C 158.304688 200.640625 155.667969 206.558594 154.792969 212.046875 C 152.167969 212.601562 149.515625 212.964844 146.835938 213.128906 Z M 137.574219 251.1875 L 161.367188 251.1875 C 162.515625 253.429688 164.175781 258.441406 161.726562 266.09375 L 129.480469 264.179688 C 129.417969 262.558594 129.3125 260.8125 129.140625 258.988281 C 133.515625 258.96875 137.527344 255.722656 137.574219 251.1875 Z M 130.753906 242.757812 L 131.789062 249.984375 C 132.214844 251.652344 131.699219 252.820312 129.964844 253.207031 L 128.429688 253.394531 C 127.574219 249.269531 127.117188 244.613281 124.839844 240.949219 C 127.46875 240.230469 129.644531 239.738281 130.753906 242.757812 Z M 121.445312 247.585938 L 109.773438 250.308594 C 109.398438 250.386719 109.058594 250.53125 108.742188 250.746094 C 108.429688 250.960938 108.171875 251.230469 107.964844 251.550781 C 107.761719 251.871094 107.625 252.21875 107.5625 252.59375 C 107.496094 252.96875 107.507812 253.339844 107.59375 253.710938 C 107.679688 254.082031 107.835938 254.421875 108.058594 254.730469 C 108.28125 255.039062 108.554688 255.289062 108.882812 255.484375 C 109.207031 255.683594 109.558594 255.808594 109.933594 255.863281 C 110.308594 255.917969 110.683594 255.898438 111.050781 255.800781 L 122.667969 253.09375 C 123.011719 255.023438 123.265625 256.914062 123.453125 258.722656 L 112.222656 261.484375 C 111.859375 261.574219 111.527344 261.730469 111.230469 261.953125 C 110.929688 262.175781 110.683594 262.445312 110.488281 262.765625 C 110.296875 263.085938 110.171875 263.429688 110.117188 263.800781 C 110.058594 264.167969 110.074219 264.535156 110.164062 264.898438 C 110.253906 265.257812 110.410156 265.589844 110.628906 265.890625 C 110.851562 266.195312 111.121094 266.441406 111.4375 266.632812 C 111.757812 266.828125 112.101562 266.953125 112.472656 267.011719 C 112.839844 267.066406 113.207031 267.050781 113.566406 266.964844 L 123.851562 264.433594 C 123.964844 267.230469 124.488281 270.976562 120.980469 271.554688 L 109.558594 273.3125 C 106.808594 273.460938 105.691406 271.074219 106.542969 269.421875 C 106.703125 269.097656 106.792969 268.753906 106.816406 268.390625 C 106.84375 268.03125 106.800781 267.679688 106.691406 267.332031 C 106.578125 266.988281 106.410156 266.675781 106.179688 266.398438 C 105.949219 266.117188 105.675781 265.894531 105.355469 265.71875 C 101.492188 263.609375 103.875 258.667969 104.15625 258.121094 C 104.324219 257.796875 104.425781 257.453125 104.464844 257.089844 C 104.5 256.722656 104.464844 256.367188 104.363281 256.015625 C 104.257812 255.664062 104.09375 255.34375 103.863281 255.058594 C 103.636719 254.769531 103.363281 254.539062 103.042969 254.355469 C 100.441406 253.117188 98.460938 248.320312 101.933594 246.84375 L 116.300781 242.910156 C 119.539062 242.054688 120.976562 244.890625 121.445312 247.585938 Z M 113.753906 237.757812 L 108.042969 239.320312 L 87.15625 124.550781 L 91.46875 119.632812 Z M 62.601562 50.066406 C 63.179688 44.976562 64.878906 31.015625 67.410156 19.304688 C 71.289062 33.398438 78.308594 59.5 82.640625 79.082031 C 81.859375 80.011719 81.136719 80.875 80.253906 81.914062 C 77.726562 69.347656 72.683594 55.496094 62.601562 50.066406 Z M 33.226562 133.28125 C 66.445312 107.757812 78.6875 92.375 88.332031 81.074219 C 88.417969 80.96875 88.527344 80.886719 88.652344 80.832031 C 88.78125 80.78125 88.914062 80.761719 89.050781 80.777344 C 89.191406 80.792969 89.316406 80.84375 89.429688 80.921875 C 89.539062 81.003906 89.625 81.105469 89.683594 81.234375 C 93.714844 89.472656 88.597656 95.613281 81.554688 100.875 C 68.03125 112.15625 4.796875 168.296875 38.910156 194.335938 C 1.34375 188.074219 0.769531 156.730469 33.226562 133.28125 Z M 33.226562 133.28125 " fill-opacity="1" fill-rule="nonzero"/></svg>