<?xml version="1.0" standalone="no"?>
<!DOCTYPE svg PUBLIC "-//W3C//DTD SVG 20010904//EN"
 "http://www.w3.org/TR/2001/REC-SVG-20010904/DTD/svg10.dtd">
<svg version="1.0" xmlns="http://www.w3.org/2000/svg"
 width="512.000000pt" height="512.000000pt" viewBox="0 0 512.000000 512.000000"
 preserveAspectRatio="xMidYMid meet">
<metadata>
Created by potrace 1.14, written by Peter Selinger 2001-2017
</metadata>
<g transform="translate(0.000000,512.000000) scale(0.100000,-0.100000)"
fill="#000000" stroke="none">
<path d="M961 4955 c-15 -57 -48 -221 -56 -280 -3 -27 -8 -59 -10 -70 -5 -24
-12 -70 -20 -145 l-6 -55 37 -20 c80 -43 154 -180 198 -367 l24 -98 -28 -38
c-48 -65 -309 -313 -441 -418 -41 -32 -76 -61 -79 -64 -3 -3 -43 -35 -90 -72
-159 -124 -243 -219 -299 -338 -32 -69 -35 -82 -36 -170 0 -84 3 -101 27 -145
33 -61 59 -91 121 -138 103 -79 250 -120 412 -117 298 6 367 2 510 -31 28 -6
78 -23 112 -36 72 -29 66 -16 103 -223 13 -69 31 -168 41 -220 10 -52 16 -97
13 -100 -3 -2 -24 -12 -47 -20 -71 -26 -85 -95 -32 -152 23 -25 24 -29 6 -101
-3 -12 29 -67 39 -67 6 0 10 -17 10 -39 0 -23 6 -44 16 -52 21 -17 14 -50 -32
-153 -74 -165 -166 -280 -258 -322 -72 -33 -123 -41 -242 -38 -126 2 -243 27
-330 69 -104 51 -135 28 -84 -61 91 -162 248 -291 423 -348 176 -58 281 -39
389 67 58 56 204 312 254 444 16 41 25 48 30 20 12 -71 73 -408 79 -437 4 -23
15 -82 30 -165 3 -16 7 -41 10 -55 9 -47 12 -65 30 -168 10 -56 21 -102 24
-103 3 -1 42 -2 87 -3 l81 -2 -9 46 c-5 25 -11 54 -12 65 -2 11 -44 236 -94
500 -50 264 -93 494 -96 510 -7 37 -14 72 -22 107 -4 19 1 36 16 56 12 16 23
37 24 48 3 21 14 22 186 11 52 -3 107 -6 122 -6 33 -1 31 -8 -28 -106 -82
-136 -67 -261 51 -415 226 -294 781 -554 1290 -605 39 -4 78 -9 88 -11 17 -3
173 -6 280 -5 l58 1 -6 43 c-11 76 -33 160 -66 252 -18 50 -32 104 -32 120 0
36 33 110 84 186 38 56 143 159 163 159 23 0 114 -112 155 -191 l44 -84 -21
-45 c-28 -63 -33 -79 -38 -130 -7 -61 5 -89 63 -143 124 -117 135 -120 211
-52 l51 46 82 -67 c46 -37 108 -83 138 -102 56 -36 211 -112 228 -112 11 0 60
186 71 267 9 76 9 353 -1 423 -36 258 -143 535 -295 767 l-61 92 38 88 c89
207 135 450 135 713 -1 314 -95 531 -255 586 -76 26 -258 26 -369 -1 -140 -33
-308 -44 -389 -23 -20 5 -47 11 -60 14 -42 9 -145 55 -181 82 -41 30 -76 64
-107 106 -27 35 -72 176 -79 244 -8 85 -15 124 -34 183 l-18 59 58 -54 c32
-29 78 -67 102 -83 138 -93 324 -118 440 -60 57 29 55 48 -7 65 -76 22 -123
58 -161 123 -38 64 -48 109 -59 259 -7 92 -40 220 -79 305 -158 346 -553 516
-941 405 -70 -20 -231 -97 -296 -142 -139 -96 -162 -120 -137 -143 7 -7 53
-21 103 -33 137 -33 226 -80 305 -161 76 -77 94 -117 94 -207 0 -47 -6 -70
-26 -106 -24 -40 -30 -44 -58 -40 -41 6 -76 -13 -91 -50 -18 -45 -20 -139 -3
-166 14 -21 13 -27 -5 -58 -70 -118 -98 -295 -77 -484 34 -306 28 -368 -46
-461 -96 -121 -204 -141 -310 -57 l-41 32 7 -29 c11 -46 58 -108 93 -125 30
-14 45 -40 24 -40 -13 0 -83 -108 -98 -154 -37 -107 -24 -212 47 -366 49 -107
58 -136 66 -202 l5 -38 -151 0 c-92 0 -150 4 -151 10 -1 6 -2 13 -3 18 -1 4
-5 24 -9 44 -4 20 -18 45 -30 55 -14 12 -21 27 -20 43 11 105 10 243 -2 299
-32 144 -136 284 -256 343 l-55 27 -18 93 c-9 51 -23 129 -31 173 -8 44 -17
91 -20 105 -3 14 -9 50 -15 80 -6 30 -12 66 -15 80 -3 14 -14 72 -25 130 -26
141 -29 156 -35 188 -3 15 -13 65 -21 112 -9 47 -18 94 -20 105 -2 11 -7 34
-10 50 -2 17 -9 44 -13 61 -7 24 -3 42 15 81 37 77 37 157 0 200 -21 24 -27
26 -52 17 l-29 -10 -58 231 c-32 126 -59 237 -61 245 -15 59 -98 365 -101 370
-2 4 -7 21 -10 37 -3 17 -9 42 -14 55 -8 21 -9 20 -20 -17z m219 -1400 c12
-66 24 -131 26 -145 3 -14 11 -59 18 -100 8 -41 17 -91 21 -110 3 -19 13 -71
21 -115 8 -44 23 -129 34 -190 11 -60 22 -121 25 -135 7 -34 11 -58 19 -105
l7 -41 -88 11 c-87 11 -245 11 -313 0 -162 -24 -308 -15 -385 23 -78 38 -90
78 -60 196 38 146 128 284 352 539 79 90 293 301 299 295 1 -2 12 -57 24 -123z
m3345 -484 c65 -29 118 -81 147 -145 29 -65 35 -232 11 -303 l-16 -46 -15 29
c-38 75 -131 173 -233 246 -79 56 -256 148 -329 170 -16 5 100 44 190 63 84
19 186 13 245 -14z"/>
</g>
</svg>
